<svg width="125" height="23" viewBox="0 0 125 23" fill="none" xmlns="http://www.w3.org/2000/svg">
<path d="M6.09246 19C4.92812 19 3.87887 18.7505 2.94469 18.2516C2.02405 17.7384 1.29972 17.0327 0.771711 16.1346C0.257237 15.2365 0 14.2172 0 13.0767C0 11.9363 0.257237 10.917 0.771711 10.0189C1.29972 9.12075 2.02405 8.42222 2.94469 7.92327C3.87887 7.41006 4.92812 7.15346 6.09246 7.15346C7.24326 7.15346 8.24513 7.41006 9.09807 7.92327C9.96455 8.42222 10.5941 9.14214 10.9867 10.083L8.52944 11.473C7.96081 10.418 7.14171 9.89057 6.07215 9.89057C5.24628 9.89057 4.56257 10.1757 4.02102 10.7459C3.47947 11.3161 3.20869 12.0931 3.20869 13.0767C3.20869 14.0604 3.47947 14.8373 4.02102 15.4075C4.56257 15.9778 5.24628 16.2629 6.07215 16.2629C7.15525 16.2629 7.97435 15.7354 8.52944 14.6805L10.9867 16.0918C10.5941 17.0042 9.96455 17.717 9.09807 18.2302C8.24513 18.7434 7.24326 19 6.09246 19Z" fill="#2E3A82"/>
<path d="M19.3723 7.15346C20.7262 7.15346 21.816 7.58113 22.6419 8.43648C23.4813 9.29182 23.901 10.5606 23.901 12.2428V18.8289H20.7329V12.756C20.7329 11.8436 20.5434 11.1665 20.1643 10.7245C19.7852 10.2683 19.2369 10.0403 18.5193 10.0403C17.7205 10.0403 17.0842 10.304 16.6104 10.8314C16.1365 11.3447 15.8996 12.1145 15.8996 13.1409V18.8289H12.7315V2.96226H15.8996V8.52201C16.3193 8.08008 16.827 7.74507 17.4227 7.51698C18.0184 7.27463 18.6683 7.15346 19.3723 7.15346Z" fill="#2E3A82"/>
<path d="M32.0906 19C30.9398 19 29.9041 18.7505 28.9834 18.2516C28.0763 17.7384 27.3656 17.0327 26.8511 16.1346C26.3366 15.2365 26.0794 14.2172 26.0794 13.0767C26.0794 11.9363 26.3366 10.917 26.8511 10.0189C27.3656 9.12075 28.0763 8.42222 28.9834 7.92327C29.9041 7.41006 30.9398 7.15346 32.0906 7.15346C33.2414 7.15346 34.2703 7.41006 35.1774 7.92327C36.0845 8.42222 36.7953 9.12075 37.3098 10.0189C37.8243 10.917 38.0815 11.9363 38.0815 13.0767C38.0815 14.2172 37.8243 15.2365 37.3098 16.1346C36.7953 17.0327 36.0845 17.7384 35.1774 18.2516C34.2703 18.7505 33.2414 19 32.0906 19ZM32.0906 16.2629C32.9029 16.2629 33.5663 15.9778 34.0808 15.4075C34.6088 14.8231 34.8728 14.0461 34.8728 13.0767C34.8728 12.1073 34.6088 11.3375 34.0808 10.7673C33.5663 10.1828 32.9029 9.89057 32.0906 9.89057C31.2783 9.89057 30.6081 10.1828 30.0801 10.7673C29.5521 11.3375 29.2881 12.1073 29.2881 13.0767C29.2881 14.0461 29.5521 14.8231 30.0801 15.4075C30.6081 15.9778 31.2783 16.2629 32.0906 16.2629Z" fill="#2E3A82"/>
<path d="M45.4792 19C44.3149 19 43.2657 18.7505 42.3315 18.2516C41.4108 17.7384 40.6865 17.0327 40.1585 16.1346C39.644 15.2365 39.3868 14.2172 39.3868 13.0767C39.3868 11.9363 39.644 10.917 40.1585 10.0189C40.6865 9.12075 41.4108 8.42222 42.3315 7.92327C43.2657 7.41006 44.3149 7.15346 45.4792 7.15346C46.63 7.15346 47.6319 7.41006 48.4849 7.92327C49.3513 8.42222 49.9809 9.14214 50.3735 10.083L47.9162 11.473C47.3476 10.418 46.5285 9.89057 45.4589 9.89057C44.6331 9.89057 43.9494 10.1757 43.4078 10.7459C42.8663 11.3161 42.5955 12.0931 42.5955 13.0767C42.5955 14.0604 42.8663 14.8373 43.4078 15.4075C43.9494 15.9778 44.6331 16.2629 45.4589 16.2629C46.542 16.2629 47.3611 15.7354 47.9162 14.6805L50.3735 16.0918C49.9809 17.0042 49.3513 17.717 48.4849 18.2302C47.6319 18.7434 46.63 19 45.4792 19Z" fill="#2E3A82"/>
<path d="M57.2577 19C56.1069 19 55.0712 18.7505 54.1505 18.2516C53.2434 17.7384 52.5326 17.0327 52.0182 16.1346C51.5037 15.2365 51.2465 14.2172 51.2465 13.0767C51.2465 11.9363 51.5037 10.917 52.0182 10.0189C52.5326 9.12075 53.2434 8.42222 54.1505 7.92327C55.0712 7.41006 56.1069 7.15346 57.2577 7.15346C58.4085 7.15346 59.4374 7.41006 60.3445 7.92327C61.2516 8.42222 61.9624 9.12075 62.4769 10.0189C62.9914 10.917 63.2486 11.9363 63.2486 13.0767C63.2486 14.2172 62.9914 15.2365 62.4769 16.1346C61.9624 17.0327 61.2516 17.7384 60.3445 18.2516C59.4374 18.7505 58.4085 19 57.2577 19ZM57.2577 16.2629C58.07 16.2629 58.7334 15.9778 59.2479 15.4075C59.7759 14.8231 60.0399 14.0461 60.0399 13.0767C60.0399 12.1073 59.7759 11.3375 59.2479 10.7673C58.7334 10.1828 58.07 9.89057 57.2577 9.89057C56.4454 9.89057 55.7752 10.1828 55.2472 10.7673C54.7192 11.3375 54.4551 12.1073 54.4551 13.0767C54.4551 14.0461 54.7192 14.8231 55.2472 15.4075C55.7752 15.9778 56.4454 16.2629 57.2577 16.2629Z" fill="#2E3A82"/>
<path d="M65.3662 2.96226H68.5343V18.8289H65.3662V2.96226Z" fill="#2E3A82"/>
<path d="M71.4745 7.32453H74.6426V18.8289H71.4745V7.32453ZM73.0586 5.72075C72.4764 5.72075 72.0025 5.54256 71.637 5.18616C71.2714 4.82977 71.0887 4.38784 71.0887 3.86038C71.0887 3.33291 71.2714 2.89099 71.637 2.53459C72.0025 2.1782 72.4764 2 73.0586 2C73.6407 2 74.1146 2.17107 74.4801 2.51321C74.8457 2.85535 75.0285 3.28302 75.0285 3.79623C75.0285 4.3522 74.8457 4.81551 74.4801 5.18616C74.1146 5.54256 73.6407 5.72075 73.0586 5.72075Z" fill="#2E3A82"/>
<path d="M81.0556 7.58113H83.8581V10.1472H81.1368V18.8289H77.9687V10.1472H76.2831V7.58113H77.9687V7.06792C77.9687 5.75639 78.3343 4.71572 79.0654 3.94591C79.81 3.1761 80.8525 2.79119 82.1928 2.79119C82.6667 2.79119 83.1134 2.84822 83.5331 2.96226C83.9664 3.06206 84.3252 3.21174 84.6095 3.41132L83.7768 5.82767C83.4113 5.55681 82.9848 5.42138 82.4974 5.42138C81.5362 5.42138 81.0556 5.97736 81.0556 7.08931V7.58113Z" fill="#2E3A82"/>
<path d="M96 13.1195C96 13.1623 95.9797 13.4616 95.9391 14.0176H87.6736C87.8226 14.7304 88.1746 15.2935 88.7297 15.7069C89.2848 16.1203 89.9752 16.327 90.8011 16.327C91.3697 16.327 91.8707 16.2415 92.3039 16.0704C92.7507 15.8851 93.1636 15.6 93.5427 15.2151L95.2283 17.1396C94.1993 18.3799 92.6965 19 90.7199 19C89.4878 19 88.398 18.7505 87.4503 18.2516C86.5025 17.7384 85.7714 17.0327 85.257 16.1346C84.7425 15.2365 84.4853 14.2172 84.4853 13.0767C84.4853 11.9505 84.7357 10.9384 85.2367 10.0403C85.7511 9.12788 86.4484 8.42222 87.3284 7.92327C88.222 7.41006 89.2171 7.15346 90.3137 7.15346C91.3833 7.15346 92.3513 7.39581 93.2178 7.8805C94.0843 8.3652 94.7612 9.06373 95.2486 9.9761C95.7495 10.8742 96 11.922 96 13.1195ZM90.334 9.67673C89.6165 9.67673 89.014 9.89057 88.5266 10.3182C88.0392 10.7459 87.7413 11.3304 87.633 12.0717H93.0147C92.9064 11.3447 92.6085 10.7673 92.1211 10.3396C91.6337 9.89769 91.038 9.67673 90.334 9.67673Z" fill="#2E3A82"/>
<path d="M112.499 23C88.1137 9.32385 105.75 -7.67861 112.499 3.77232C119.249 -7.67861 136.888 9.32385 112.499 23Z" fill="url(#gradient1)"/>
<path d="M103.928 13C103.667 13 103.446 12.8989 103.268 12.6968C103.089 12.4946 103 12.2419 103 11.9386C103 11.6282 103.089 11.3791 103.268 11.1913C103.446 10.9964 103.667 10.8989 103.928 10.8989C104.19 10.8989 104.41 10.9964 104.588 11.1913C104.767 11.3791 104.856 11.6282 104.856 11.9386C104.856 12.2419 104.767 12.4946 104.588 12.6968C104.41 12.8989 104.19 13 103.928 13Z" fill="white"/>
<path d="M112.459 7C113.104 7 113.614 7.21661 113.99 7.64982C114.373 8.07581 114.564 8.71841 114.564 9.57762V12.9134H113.072V9.83754C113.072 9.37545 112.986 9.03249 112.813 8.80866C112.648 8.57762 112.408 8.46209 112.096 8.46209C111.745 8.46209 111.468 8.59206 111.263 8.85198C111.059 9.10469 110.957 9.48375 110.957 9.98917V12.9134H109.465V9.83754C109.465 8.92058 109.14 8.46209 108.489 8.46209C108.145 8.46209 107.87 8.59206 107.666 8.85198C107.462 9.10469 107.36 9.48375 107.36 9.98917V12.9134H105.868V7.08664H107.293V7.75812C107.484 7.51263 107.717 7.32491 107.991 7.19495C108.272 7.06498 108.578 7 108.91 7C109.273 7 109.602 7.08303 109.895 7.2491C110.189 7.40794 110.425 7.6426 110.603 7.95307C110.814 7.64982 111.078 7.41516 111.397 7.2491C111.723 7.08303 112.077 7 112.459 7Z" fill="white"/>
<path d="M121 10.0217C121 10.0433 120.99 10.1949 120.971 10.4765H117.077C117.148 10.8375 117.313 11.1227 117.575 11.3321C117.836 11.5415 118.162 11.6462 118.551 11.6462C118.819 11.6462 119.055 11.6029 119.259 11.5162C119.469 11.4224 119.664 11.278 119.842 11.083L120.636 12.0578C120.152 12.6859 119.444 13 118.512 13C117.932 13 117.419 12.8736 116.972 12.6209C116.526 12.361 116.181 12.0036 115.939 11.5487C115.697 11.0939 115.575 10.5776 115.575 10C115.575 9.4296 115.693 8.91697 115.929 8.46209C116.172 8 116.5 7.6426 116.915 7.38989C117.336 7.12996 117.805 7 118.321 7C118.825 7 119.281 7.12274 119.689 7.36823C120.097 7.61372 120.416 7.96751 120.646 8.4296C120.882 8.88448 121 9.41516 121 10.0217ZM118.331 8.27798C117.993 8.27798 117.709 8.38628 117.479 8.60289C117.25 8.81949 117.109 9.11552 117.058 9.49097H119.594C119.543 9.12274 119.402 8.83032 119.173 8.61372C118.943 8.38989 118.662 8.27798 118.331 8.27798Z" fill="white"/>
<defs>
<linearGradient id="gradient1" x1="100" y1="7.28873" x2="125" y2="7.28873" gradientUnits="userSpaceOnUse">
<stop stop-color="#E6155B"/>
<stop offset="1" stop-color="#FF3C3C"/>
</linearGradient>
</defs>
</svg>
