<svg width="121" height="40" viewBox="0 0 121 40" fill="none" xmlns="http://www.w3.org/2000/svg">
<path fill-rule="evenodd" clip-rule="evenodd" d="M13.5798 8.34509H8.83766V12.841L1.26252 20.0144L8.83766 27.1893V31.6544H13.5798L15.335 33.3173L21.1857 38.8293L27.0057 33.3188L28.7917 31.6559H33.503V27.1908L35.2891 25.528L41.109 20.0159L35.2891 14.5038L33.503 12.841V8.34509H28.7917L27.0057 6.68223L21.1857 1.17016L13.5798 8.34509ZM7.08244 6.68223H14.1033L21.1857 0L28.2682 6.68223H35.2891V13.3029L42.3715 20.0149L35.2891 26.6971V33.3178H28.2682L21.1857 40L14.1033 33.3178H7.08244V26.6971L0 20.0149L7.08244 13.3019V6.68121V6.68223ZM3.72598 20.0149L21.1857 3.54025L38.6147 20.0149L21.1857 36.4895L3.72598 20.0149Z" fill="#006D58"/>
<path fill-rule="evenodd" clip-rule="evenodd" d="M33.5042 15.1814C31.558 17.4396 28.9262 19.0809 26.083 19.9544C24.5408 20.4133 23.2511 20.5867 21.6488 20.6627C20.3647 20.6447 19.0329 20.8444 17.892 21.4633C15.834 22.5267 14.3729 24.535 14.2584 26.883C14.0757 31.6704 18.2697 32.9935 21.1869 36.4907L26.2986 31.6561L33.5042 24.8199L38.6158 20.016L33.5042 15.1814ZM8.8388 24.8199C10.7429 22.7141 13.1817 21.0666 15.8905 20.2008C18.8661 18.9973 21.3942 19.7738 23.8659 18.8151C25.9101 18.0555 27.5098 16.2335 27.9922 14.1036C28.9201 8.87281 24.4474 7.04674 21.1869 3.54139L16.0752 8.34521L8.8388 15.1804L3.72713 20.015L8.8388 24.8188V24.8199ZM1.26367 20.015L8.8388 12.8401V8.34419H13.581L21.1869 1.16925L28.7928 8.34419H33.5042V12.8401L41.1101 20.015L33.5042 27.1899V31.655H28.7928L21.1869 38.83L13.581 31.655H8.8388V27.1899L1.26367 20.016V20.015Z" fill="#F1A400"/>
<path fill-rule="evenodd" clip-rule="evenodd" d="M72.6397 29.3153L69.8375 23.9881L67.0045 29.3153H72.6397ZM46.5576 27.9901V31.3158H54.9334L55.1182 31.2542H55.1798C55.3681 31.2013 55.5313 31.1002 55.7033 31.0079L55.7956 30.9463L55.9188 30.8231L56.0112 30.6999L56.1344 30.5767L56.196 30.4546C56.3294 30.3176 56.3551 30.1015 56.4115 29.9311C56.4362 29.4107 56.3961 29.0032 56.0112 28.607L55.9188 28.4839L55.7956 28.3915L55.6417 28.2683L55.4877 28.2067L55.3337 28.1143L55.2722 28.0835L55.1798 28.0517C52.3622 27.6822 49.465 27.7772 46.5576 27.9901ZM46.5576 22.6629V25.9886H54.9334L55.0258 25.9578H55.1182L55.1798 25.927C55.3645 25.8603 55.5621 25.7925 55.7033 25.6499C55.9214 25.5831 56.0974 25.3229 56.196 25.1264C56.3345 24.9796 56.3653 24.7584 56.4115 24.5721C56.4351 24.0178 56.3894 23.7176 56.0112 23.2788L55.9188 23.1556L55.7956 23.0325L55.6417 22.9709L55.3337 22.7861L55.2722 22.7553H55.1798L55.1182 22.7245L55.0258 22.6937H54.9334L54.841 22.6619H46.5576V22.6629ZM79.6914 20.6614H83.2019L93.0866 29.9917V20.6624H96.5971V33.3184H93.0866L83.2019 23.9881V33.3184H79.6914V20.6624V20.6614ZM104.08 27.0048L113.163 20.6624H109.283L101.554 25.9896V20.6624H98.0126V33.3184H101.554V27.9901L109.283 33.3173H113.163L104.079 27.0048H104.08ZM105.774 6.68134H109.284V12.0085L117.044 6.68134H120.924L111.84 13.0247L120.924 19.3373H117.044L109.284 14.0101V19.3373H105.774V6.68236V6.68134ZM98.0136 14.0101V19.3373H94.5031V14.0111L87.7901 6.68236H91.3314L96.2584 12.0096L101.185 6.68236H104.727L98.0136 14.0111V14.0101ZM79.6914 6.68134H83.2019V17.3357H93.0866V19.3373H79.6914V6.68236V6.68134ZM69.8375 10.007L72.6397 15.3342H67.0045L69.8375 10.007ZM74.7645 19.3373H78.2749L71.5927 6.68134H68.0515L61.3693 19.3373H64.8797L65.9267 17.3357H73.6867L74.7645 19.3373ZM43.0471 6.68134H46.5576V12.0085H56.4115V6.68236H59.9528V19.3383H56.4115V14.0111H46.5576V19.3383H43.0471V6.68236V6.68134ZM43.0471 20.6614H56.781L56.935 20.6922H57.1198L57.2737 20.724L57.4277 20.7856L57.5817 20.8164L57.7664 20.878C58.1585 21.0099 58.5224 21.228 58.8442 21.4938C59.4929 22.0892 59.9035 22.7923 59.9528 23.6801C60.0298 25.5575 58.4182 26.9914 56.5963 27.0058C58.313 26.9416 59.9651 28.3966 59.9528 30.1467C59.9671 31.0037 59.5745 31.8059 58.9674 32.3946C58.6492 32.6881 58.2992 32.9283 57.8896 33.072L57.7664 33.1336L57.5817 33.1644L57.4277 33.226L57.2737 33.2568L57.1198 33.2876L56.935 33.3184H43.0471V20.6624V20.6614ZM64.8797 33.3173H61.3693L68.0515 20.6614H71.5927L78.2749 33.3173H74.7645L73.6867 31.3158H65.9267L64.8797 33.3173Z" fill="#006D58"/>
<path fill-rule="evenodd" clip-rule="evenodd" d="M61.4936 0.03075H64.3266V0.369477H63.1873V2.03232H62.633V0.369477H61.4936V0.03075ZM40.4616 1.35486L40.9236 0.523443L41.3855 1.35486H40.4616ZM41.2007 0.03075H40.6464L39.507 2.03232H40.0613L40.2769 1.69359H41.5702L41.755 2.03232H42.3401L41.2007 0.03075ZM44.3724 0.03075C43.9536 0.0984953 44.0286 0.360239 44.0337 0.708203H44.588V0.369477H46.0045V0.86217H45.2962V1.2009H46.0045V1.69359H44.588V1.35486H44.0337C44.0542 1.55913 43.95 1.86295 44.1877 1.97073L44.3108 2.03232H46.2816L46.3432 2.00152L46.4048 1.97073C46.6255 1.87168 46.5588 1.45648 46.5588 1.29328C46.4828 1.13315 46.4176 1.01922 46.22 1.04693L46.2816 1.01614H46.3432L46.4048 0.985343L46.4972 0.892963L46.5588 0.76979V0.30789L46.4664 0.12313L46.4048 0.092337L46.3432 0.061544L46.2816 0.03075H44.3724ZM49.1762 1.35486L49.6689 0.523443L50.1308 1.35486H49.1762ZM49.9461 0.03075H49.361L48.2524 2.03232H48.8067L48.9915 1.69359H50.3156L50.5003 2.03232H51.0854L49.9461 0.03075ZM57.3365 0.03075H59.5229L59.7076 0.12313C59.8811 0.465449 59.7579 0.185744 59.8 0.708203H59.2457V0.369477H57.5521V1.69359H59.2457V1.35486H59.8V1.75518L59.7076 1.93994L59.646 1.97073L59.5229 2.03232H57.2749L57.0902 1.93994L56.9978 1.75518V0.30789C57.0732 0.126723 57.1235 0.0564111 57.3365 0.03075ZM66.9441 1.35486L67.4368 0.523443L67.8987 1.35486H66.9441ZM67.7139 0.03075H67.1289L66.0203 2.03232H66.5746L66.7593 1.69359H68.0835L68.2682 2.03232H68.8225L67.7139 0.03075ZM70.5161 0.03075H71.1012V0.86217H72.7641V0.03075H73.3491V2.03232H72.7641V1.2009H71.1012V2.03232H70.5161V0.03075ZM35.2883 0.03075H35.8426V0.86217L37.1359 0.03075H37.8134L36.2737 1.04693L37.5671 1.84756H37.8134L37.4439 2.40183H37.1667L37.2591 2.03232H37.1359L35.8426 1.2009V2.03232H35.2883V0.03075ZM103.434 1.2009V1.69359H104.635L104.697 1.6628H104.759L104.82 1.60121L104.851 1.53962V1.35486L104.82 1.29328L104.759 1.23169L104.697 1.2009H103.434ZM102.88 0.03075H105.128V0.369477H103.434V0.86217H104.913L105.036 0.923757H105.097L105.128 0.95455L105.19 0.985343L105.313 1.10852L105.374 1.23169L105.405 1.26248V1.632L105.374 1.6628L105.344 1.72438L105.313 1.75518L105.282 1.81676L105.251 1.84756L105.19 1.87835L105.127 1.93994L105.096 1.97073H105.035L104.973 2.00152H104.911L104.85 2.03232H102.879V0.03075H102.88ZM108.053 1.35486L108.515 0.523443L108.977 1.35486H108.053ZM108.793 0.03075H108.238L107.099 2.03232H107.684L107.869 1.69359H109.162L109.378 2.03232H109.932L108.793 0.03075ZM111.626 0.03075H112.18V0.86217H113.873V0.03075H114.428V2.03232H113.873V1.2009H112.18V2.03232H111.626V0.03075ZM116.121 0.03075H116.706V0.86217L118 0.03075H118.677L117.138 1.04693L118.677 2.03232H118L116.706 1.2009V2.03232H116.121V0.03075ZM120.371 2.03232V0.03075H120.925V2.03232H120.371ZM78.9844 1.2009L78.2145 2.03232H77.5679L78.4917 1.04693L77.5679 0.03075H78.2145L78.9844 0.86217L79.7542 0.03075H80.4009L79.4463 1.04693L80.4009 2.03232H79.7542L78.9844 1.2009ZM83.0183 1.35486L83.4802 0.523443L83.9729 1.35486H83.0183ZM83.7882 0.03075H83.2031L82.0945 2.03232H82.6488L82.8336 1.69359H84.1577L84.3424 2.03232H84.8967L83.7882 0.03075ZM91.6713 1.2009V1.69359H92.8723L92.9338 1.6628H92.9646L93.0262 1.60121L93.058 1.53962L93.0888 1.50883V1.38566L93.058 1.35486L93.0273 1.29328L92.9657 1.23169L92.9349 1.2009H91.6713ZM93.9192 2.03232V0.03075H94.5043V2.03232H93.9192ZM91.0862 0.03075H91.6713V0.86217H93.1494L93.2726 0.923757H93.3034L93.4265 0.985343C93.5169 1.15881 93.6708 1.21783 93.6421 1.44724V1.57042L93.6113 1.632V1.6628L93.5189 1.75518L93.4881 1.81676L93.365 1.93994L93.3034 1.97073H93.2726L93.211 2.00152H93.1494L93.0878 2.03232H91.0862V0.03075ZM88.284 0.03075H87.7297L86.5904 2.03232H87.1447L88.0069 0.523443L88.8383 2.03232H89.4234L88.284 0.03075ZM96.1672 0.03075H96.7522V0.86217L98.0456 0.03075H98.723L97.1834 1.04693L98.4459 1.84756H98.723L98.3535 2.40183H98.0456L98.1687 2.03232H98.0456L96.7522 1.2009V2.03232H96.1672V0.03075ZM119.047 39.323L119.509 38.4916L120.001 39.323H119.047ZM107.099 37.9979H109.932V38.3058H108.823V39.9686H108.238V38.3058H107.099V37.9979ZM89.2078 39.322L89.6697 38.4906L90.1624 39.322H89.2078ZM89.9777 37.9979H89.3926L88.284 39.9686H88.8383L89.0231 39.6607H90.3472L90.532 39.9686H91.0862L89.9777 37.9979ZM92.3796 37.9979H92.2564L92.1948 38.0287L92.1024 38.121L92.0408 38.2442V38.6445H92.5951V38.3058H94.0116V38.7985H93.3034V39.1372H94.0116V39.6607H92.5951V39.322H92.0408C92.0716 39.6597 91.9561 39.7233 92.1948 39.9378L92.2564 39.9697H94.3503L94.4119 39.9389C94.6501 39.7361 94.5474 39.596 94.5659 39.2614C94.513 39.111 94.4032 38.9689 94.2272 38.9843H94.2888L94.3822 38.9535L94.413 38.9227L94.4745 38.8909C94.648 38.548 94.5248 38.8277 94.5669 38.3058V38.2442L94.5053 38.121L94.4745 38.0902L94.413 38.0287L94.3514 37.9979H92.3806H92.3796ZM96.4751 39.322L96.937 38.4906L97.3989 39.322H96.4751ZM97.2141 37.9979H96.6599L95.5205 39.9686H96.0748L96.2595 39.6607H97.5837L97.7684 39.9686H98.3535L97.2141 37.9979ZM100.694 39.1372L99.924 39.9686H99.2773L100.201 38.9832L99.2773 37.9979H99.924L100.694 38.7985L101.464 37.9979H102.11L101.187 38.9832L102.11 39.9686H101.464L100.694 39.1372ZM103.558 37.9979H105.806L105.867 38.0287L105.96 38.121L106.021 38.2442V38.6445H105.467V38.3058H103.773V39.6607H105.467V39.322H106.021C105.99 39.6597 106.106 39.7233 105.867 39.9378L105.806 39.9697H103.434L103.373 39.9389L103.28 39.8465L103.219 39.7233V38.2452C103.295 38.0851 103.36 37.9712 103.558 37.9979ZM111.502 39.322L111.995 38.4906L112.457 39.322H111.502ZM112.272 37.9979H111.718L110.579 39.9686H111.133L111.318 39.6607H112.641L112.825 39.9686H113.38L112.272 37.9979ZM114.335 37.9979H114.92V38.7985H116.583V37.9979H117.168V39.9686H116.583V39.1372H114.92V39.9686H114.335V37.9979ZM84.8044 37.9979H85.3586V38.7985L86.652 37.9979H87.3294L85.7897 38.9832L87.3294 39.9686H86.652L85.3586 39.1372V39.9686H84.8044V37.9979ZM119.786 37.9979H119.232L118.092 39.9686H118.677L118.862 39.6607H120.186L120.371 39.9686H120.925L119.786 37.9979ZM35.2883 37.9979H35.8426V38.7985H37.5363V37.9979H38.0905V39.9686H37.5363V39.1372H35.8426V39.9686H35.2883V37.9979ZM39.9997 39.322L40.4616 38.4906L40.9236 39.322H39.9997ZM40.7388 37.9979H40.1845L39.0451 39.9686H39.5994L39.7842 39.6607H41.1083L41.2931 39.9686H41.8782L40.7388 37.9979ZM46.8667 39.6607V38.3058H48.5603V39.6607H46.8667ZM46.6511 37.9979H48.8991L48.9607 38.0287L48.9915 38.0902L49.053 38.121L49.1146 38.2442V39.7223L49.053 39.8455L48.9915 39.8763L48.9607 39.9378L48.8991 39.9697H46.4972L46.4356 39.9389L46.4048 39.8773L46.3432 39.8465L46.3124 39.7849V39.7233L46.2816 39.6617V38.3068L46.3124 38.2452V38.1837L46.3432 38.1221L46.4048 38.0913L46.4356 38.0297L46.4972 37.9979H46.6511ZM43.3562 38.7985V38.3058H44.588L44.6188 38.3366L44.6804 38.3684L44.7727 38.4608V38.5224L44.8035 38.5532L44.7727 38.6148V38.6763L44.6804 38.7687L44.6188 38.7995H43.3562V38.7985ZM42.802 39.9686H43.3562V39.1372H44.9267L44.9575 39.1064L45.0807 39.0448L45.1115 39.014L45.1731 38.9832L45.2049 38.9217L45.2357 38.8909L45.2665 38.8293L45.2973 38.7985L45.3281 38.7369V38.6137L45.3599 38.5521L45.3291 38.5214V38.3982L45.2675 38.275L45.2367 38.2442L45.2059 38.1826L45.1741 38.1518L45.1125 38.12L45.0817 38.0892L44.9585 38.0276L44.9277 37.9968H42.802V39.9691V39.9686ZM50.8083 39.6607H52.3172V38.3058C51.0885 38.2237 50.6517 38.3638 50.8083 39.6607ZM50.0692 39.6607H50.3464C50.4413 38.8344 50.137 38.8498 50.6543 38.275L50.7159 38.2144L50.9007 38.0913L50.993 38.0605L51.1778 37.9989H52.8714V39.6617H53.1486V39.9697H50.0692V39.6617V39.6607ZM54.1032 37.9979H54.6575V38.7985H56.3511V37.9979H56.9054V39.9686H56.3511V39.1372H54.6575V39.9686H54.1032V37.9979ZM58.4451 39.1372V39.6607H59.5844L59.646 39.6299H59.6768L59.7384 39.5991L59.8308 39.5067V39.4452L59.8616 39.3836L59.8308 39.3528V39.2912L59.7384 39.1988L59.6768 39.168H59.646L59.5844 39.1372H58.4451ZM60.693 39.9686V37.9979H61.2473V39.9686H60.693ZM57.86 37.9979H58.4451V38.7985H59.7692L59.8616 38.8293H59.9848L60.0155 38.8611L60.0771 38.8919L60.1387 38.9227L60.1695 38.9535L60.2311 38.9853L60.2629 39.0161L60.2937 39.0777L60.3245 39.1085L60.3861 39.2317V39.3548L60.4169 39.3856L60.3861 39.4472V39.5704L60.3553 39.632L60.3245 39.6628L60.2937 39.7243L60.2629 39.7551L60.2311 39.8167L60.1695 39.8475L60.1387 39.8783L60.0155 39.9399L59.9848 39.9717H57.86V37.9979ZM63.0641 37.9979V37.6591H64.1419V37.9979H63.0641ZM65.0041 37.9979H64.4498L62.7562 39.4452V37.9979H62.2019V39.9686H62.7562L64.4498 38.5214V39.9686H65.0041V37.9979ZM68.9765 39.1372V39.6607H70.1158L70.1774 39.6299H70.239L70.3622 39.5067L70.393 39.4452V39.3528L70.3622 39.2912L70.239 39.168H70.1774L70.1158 39.1372H68.9765ZM68.4222 37.9979H70.6701V38.3058H68.9765V38.7985H70.3314L70.393 38.8293H70.5161L70.5777 38.8611C70.6393 38.895 70.7522 38.9607 70.7933 39.0151C70.939 39.1932 70.8821 39.1126 70.9473 39.2922C70.9524 39.5078 70.9457 39.4487 70.9165 39.6309L70.8549 39.6617V39.7233L70.7933 39.7541L70.7625 39.8157L70.7317 39.8465L70.6701 39.8773L70.6393 39.9091L70.5777 39.9399L70.5161 39.9707H68.4222V37.9989V37.9979ZM72.7025 39.322L73.1952 38.4906L73.6571 39.322H72.7025ZM73.4723 37.9979H72.8872L71.7787 39.9686H72.333L72.5177 39.6607H73.8419L74.0266 39.9686H74.5809L73.4723 37.9979ZM75.5355 37.9979H76.0898V38.7985H77.7834V37.9979H78.3685V39.9686H77.7834V39.1372H76.0898V39.9686H75.5355V37.9979ZM79.4155 37.9979H79.9698V38.7985L81.2939 37.9979H81.9406L80.4317 38.9832L81.9406 39.9686H81.2939L79.9698 39.1372V39.9686H79.4155V37.9979ZM52.7791 0.0297241H53.3333V0.861143L54.6267 0.0297241H55.3041L53.7645 1.0459L55.0578 1.84653H55.3041L54.9346 2.40081H54.6267L54.7498 2.03129H54.6267L53.3333 1.19987V2.03129H52.7791V0.0297241Z" fill="#1F1A17"/>
</svg>
