<svg width="183" height="37" viewBox="0 0 183 37" fill="none" xmlns="http://www.w3.org/2000/svg">
<path fill-rule="evenodd" clip-rule="evenodd" d="M160.683 5.81703C160.683 5.81703 166.534 -4.30726 178.221 2.15738C186.068 6.49862 183.082 17.8168 177.624 24.1153C171.417 31.2768 160.683 37 160.683 37C160.683 37 149.948 31.2771 143.741 24.1153C138.282 17.8168 135.297 6.49862 143.144 2.15738C154.832 -4.30726 160.683 5.81703 160.683 5.81703Z" fill="#D62E27"/>
<path fill-rule="evenodd" clip-rule="evenodd" d="M147.044 23.458C146.294 23.458 145.682 22.9074 145.682 22.1115C145.682 21.3164 146.334 20.7236 147.044 20.7236C147.851 20.7236 148.444 21.377 148.444 22.1319C148.444 22.6629 148.029 23.458 147.044 23.458Z" fill="white"/>
<path fill-rule="evenodd" clip-rule="evenodd" d="M150.07 11.1366L151.88 10.4266V13.341L152.017 13.5066C152.177 13.4599 152.201 13.4358 152.337 13.2707C153.415 11.8949 153.528 11.7533 154.101 11.2794C154.489 10.9718 155.109 10.4977 156.048 10.4977C157.902 10.4977 158.154 12.0613 158.269 13.2227L158.337 13.2707C158.36 13.2707 158.383 13.246 158.406 13.246C158.543 13.1749 158.658 12.9611 158.772 12.843C160.444 11.0183 161.292 10.4735 162.482 10.4735C162.78 10.4735 163.604 10.5216 164.154 11.3266C164.475 11.8005 164.59 12.203 164.59 14.1225V23.1506H162.62V14.3366C162.62 13.3169 162.62 12.1322 161.406 12.1322C160.514 12.1322 159.665 13.1988 158.314 14.9514V23.1506H156.345V13.9572C156.345 12.2505 155.773 12.1558 155.27 12.1558C154.834 12.1558 154.444 12.3221 153.62 13.1282C153.253 13.4827 153.116 13.6486 152.04 15.1416V23.1508H150.07V11.1366H150.07Z" fill="white"/>
<path fill-rule="evenodd" clip-rule="evenodd" d="M176.336 17.1785H169.237C169.213 19.9515 169.991 21.7991 172.122 21.7991C173.519 21.7991 174.182 21.1118 174.55 20.7574L175.739 21.8938C174.962 22.6044 174.023 23.4577 171.847 23.4577C169.076 23.4577 167.13 21.183 167.13 17.2974C167.13 10.9951 170.749 10.4731 171.824 10.4731C174.709 10.4731 176.244 13.0087 176.314 16.0412L176.336 17.1785ZM173.695 15.5479C173.695 13.4149 172.916 11.8279 171.291 11.8279C170.306 11.8279 169.527 12.4437 169.138 13.3915C168.771 14.2915 168.749 15.1212 168.725 15.5479H173.695Z" fill="white"/>
<path fill-rule="evenodd" clip-rule="evenodd" d="M13.0276 8.87773C12.7462 6.30567 11.5552 3.98638 8.75414 3.98638C6.19738 3.98638 5.11274 6.05155 4.55175 7.4649C3.60639 9.85583 3.50135 13.5522 3.50135 13.8418C3.50135 19.6747 4.51777 25.3641 8.75414 25.3641C10.7852 25.3641 11.8358 23.8418 12.1512 23.3349C12.8525 22.1027 12.9916 20.5807 13.0616 19.7118L16.564 20.363C16.4226 22.4652 15.6886 24.7472 14.1473 26.3417C11.9409 28.6248 9.42018 28.6248 8.4385 28.6248C6.33744 28.6248 0 27.5009 0 14.7112C0 8.58818 1.50402 0.834167 8.75388 0.834167C10.4006 0.834167 12.5356 1.34214 14.112 3.00881C15.8627 4.85689 16.2133 6.95827 16.3884 8.22646L13.0276 8.87773Z" fill="#414142"/>
<path fill-rule="evenodd" clip-rule="evenodd" d="M21.5365 1.92118L24.6882 0.580811V11.7393C24.6882 11.9937 24.7585 12.1021 24.9689 12.1021C25.1439 12.1021 25.5299 11.4505 25.8442 10.9793C27.2092 8.87741 28.8909 8.33402 30.4662 8.33402C33.058 8.33402 34.1087 10.1821 34.1087 12.9361V27.7542H30.9932V13.0448C30.9932 11.6676 30.5726 10.7612 29.2415 10.7612C28.5768 10.7612 27.8755 11.0877 27.2095 11.6314C26.2991 12.3924 25.3548 13.8417 24.6887 14.8566V27.7545H21.537V1.92118H21.5365Z" fill="#414142"/>
<path fill-rule="evenodd" clip-rule="evenodd" d="M45.2469 8.33441C48.714 8.33441 50.3957 10.2182 51.341 12.0662C52.1811 13.7329 52.706 16.5229 52.706 18.3712C52.706 24.0603 49.9047 28.1531 45.3872 28.1531C42.2002 28.1531 40.8694 26.4499 40.1691 25.5451C38.8041 23.7689 38.2084 21.1969 38.2084 17.9365C38.2084 11.3425 41.4651 8.33441 45.2469 8.33441ZM41.2913 18.5154C41.2913 19.9656 41.782 25.3276 45.4234 25.3276C48.7854 25.3276 49.3804 20.9074 49.3804 18.1894C49.3804 16.9218 49.1709 14.9288 48.7491 13.6971C48.3308 12.4643 47.5597 11.6679 46.7194 11.3062C46.2998 11.1248 45.8441 11.0523 45.3884 11.0523C41.922 11.0523 41.2913 15.5817 41.2913 18.5154Z" fill="#414142"/>
<path fill-rule="evenodd" clip-rule="evenodd" d="M65.4545 14.0593C65.1738 13.2256 64.4738 11.052 62.3377 11.052C60.1667 11.052 58.52 13.4067 58.52 17.32C58.52 18.9139 58.6261 20.9788 59.0799 22.2838C59.5717 23.6604 60.621 25.3641 62.6184 25.3641C64.5444 25.3641 65.4547 23.6604 65.7351 21.7406L68.5362 23.0445C67.9412 26.1608 65.7351 28.1527 62.6184 28.1527C55.6136 28.1527 55.4396 19.6384 55.4396 18.5884C55.4396 16.7763 55.4396 13.7695 57.2953 11.1245C58.9056 8.8417 60.9717 8.40698 62.2327 8.40698C62.9677 8.40698 65.4897 8.62407 66.9248 10.6168C67.5908 11.5224 67.7309 11.7768 68.1165 12.6817L65.4545 14.0593Z" fill="#414142"/>
<path fill-rule="evenodd" clip-rule="evenodd" d="M78.3059 8.33441C81.7733 8.33441 83.4547 10.2182 84.399 12.0662C85.2404 13.7329 85.7653 16.5229 85.7653 18.3712C85.7653 24.0603 82.964 28.1531 78.4465 28.1531C75.2595 28.1531 73.9298 26.4499 73.2285 25.5451C71.8624 23.7689 71.2677 21.1969 71.2677 17.9365C71.2677 11.3425 74.5245 8.33441 78.3059 8.33441ZM74.3489 18.5154C74.3489 19.9656 74.8386 25.3276 78.4815 25.3276C81.8433 25.3276 82.438 20.9074 82.438 18.1894C82.438 16.9218 82.2274 14.9288 81.808 13.6971C81.3887 12.4643 80.6173 11.6679 79.777 11.3062C79.3563 11.1248 78.9017 11.0523 78.446 11.0523C74.9789 11.0523 74.3489 15.5817 74.3489 18.5154Z" fill="#414142"/>
<path fill-rule="evenodd" clip-rule="evenodd" d="M90.5634 1.92141L93.2586 0.761902H93.7156V27.7547H90.5636V1.92141H90.5634Z" fill="#414142"/>
<path fill-rule="evenodd" clip-rule="evenodd" d="M99.8448 1.84937H103.907V5.29112H99.8448V1.84937ZM100.334 8.80555H103.486V27.7543H100.334V8.80555Z" fill="#414142"/>
<path fill-rule="evenodd" clip-rule="evenodd" d="M108.181 10.3997H110.737V6.23367C110.737 4.92926 110.737 3.51644 112.103 2.10281C113.224 0.943301 114.765 0.761902 115.71 0.761902C116.41 0.761902 117.531 0.834086 118.407 1.26907V4.0228C117.917 3.76895 117.251 3.44318 116.307 3.44318C114.03 3.44318 114.03 5.3637 114.03 6.34262V10.3278H117.251V12.5011H114.03V27.755H110.737V12.5008H108.182V10.3997H108.181Z" fill="#414142"/>
<path fill-rule="evenodd" clip-rule="evenodd" d="M133.955 18.6241H123.099C123.065 22.8631 124.255 25.689 127.511 25.689C129.648 25.689 130.664 24.6388 131.224 24.0956L133.045 25.8337C131.854 26.9213 130.418 28.226 127.091 28.226C122.855 28.226 119.877 24.7466 119.877 18.8055C119.877 9.16829 125.411 8.37024 127.057 8.37024C131.47 8.37024 133.815 12.2472 133.921 16.8845L133.955 18.6241ZM130.801 16.4145C130.801 13.1534 129.61 10.726 127.123 10.726C125.618 10.726 124.427 11.6678 123.831 13.118C123.271 14.494 123.236 15.7627 123.201 16.4148H130.801V16.4145Z" fill="#414142"/>
</svg>
